<svg width="119" height="119" viewBox="0 0 119 119" fill="none" xmlns="http://www.w3.org/2000/svg">
  <path d="M109.083 59.4998C109.083 86.8839 86.8835 109.083 59.4993 109.083C32.1152 109.083 9.91602 86.8839 9.91602 59.4998C9.91602 32.1157 32.1152 9.9165 59.4993 9.9165C86.8835 9.9165 109.083 32.1157 109.083 59.4998ZM19.8327 59.4998C19.8327 81.4071 37.5921 99.1665 59.4993 99.1665C81.4066 99.1665 99.166 81.4071 99.166 59.4998C99.166 37.5925 81.4066 19.8332 59.4993 19.8332C37.5921 19.8332 19.8327 37.5925 19.8327 59.4998Z" fill="white"/>
  <path id="blueContent" d="M59.4993 9.91684C66.0107 9.91684 72.4583 11.1993 78.4741 13.6911C84.4898 16.1829 89.9558 19.8352 94.56 24.4395C99.1643 29.0437 102.817 34.5097 105.308 40.5254C107.8 46.5412 109.083 52.9888 109.083 59.5002L99.166 59.5002C99.166 54.2911 98.14 49.133 96.1466 44.3204C94.1531 39.5078 91.2313 35.135 87.5479 31.4516C83.8645 27.7682 79.4917 24.8464 74.6791 22.8529C69.8665 20.8595 64.7084 19.8335 59.4993 19.8335L59.4993 9.91684Z" fill="#1D9CCB">
    <animateTransform attributeName="transform"
                     type="rotate"
                     dur="2s"
                     repeatCount="indefinite"
                     from="0 59.5 59.5"
                     to="360 59.5 59.5"
                     calcMode="linear"
                     fill="freeze" />
  </path>
</svg>